:FULLY-SPECIFIED
:FORCE-ALL-JOINTS-BE-3DOF
:DEGREES
2344
root 1.55935 14.3643 -18.3291 920.785 -57.2155 168.104
lfemur -19.2349 -5.13062 8.3341
ltibia 24.1735 0 0
lfoot -9.57848 24.2275 0
ltoes -39.0549 0 0
rfemur -63.2543 -6.4629 10.4093
rtibia 77.7426 0 0
rfoot -15.6681 -9.99517 0
rtoes 1.66656 0 0
lowerback 20.8908 3.67318 -3.95601
upperback 0.390269 3.63719 -1.0185
thorax -11.4958 1.82387 0.025725
lowerneck -5.30259 -2.04716 -4.23819
upperneck 1.80819 -2.46358 -0.212955
head 1.5109 -1.27851 0.576845
lclavicle 3.96774e-14 -7.63333e-15 0
lhumerus -29.1425 -24.0889 84.6459
lradius 102.397 0 0
lwrist 57.0829 0 0
lhand -22.0418 399.139 0
lfingers 7.12502 0 0
lthumb 3.89313 -650.525 0
rclavicle 6.56918e-14 8.18991e-15 0
rhumerus 46.2381 11.8387 -44.2994
rradius 49.1485 0 0
rwrist 4.93297 0 0
rhand -6.49781 -400.08 0
rfingers 7.12502 0 0
rthumb 19.1997 290.899 0
2345
root 1.69536 14.4422 -18.51 922.398 -60.322 166.81
lfemur -20.6634 -5.53707 8.99166
ltibia 23.7747 0 0
lfoot -9.39425 23.9576 0
ltoes -37.7936 0 0
rfemur -62.7999 -5.6591 10.1927
rtibia 77.5817 0 0
rfoot -16.0607 -10.6689 0
rtoes 1.49926 0 0
lowerback 21.0459 3.59166 -3.7812
upperback 0.416447 3.56553 -1.02336
thorax -11.5381 1.78087 -0.0635514
lowerneck -5.57499 -1.62496 -4.23017
upperneck 2.24731 -1.87732 -0.216943
head 1.68879 -0.991453 0.590228
lclavicle 3.56063e-14 -8.36486e-15 0
lhumerus -27.1952 -24.4786 83.6397
lradius 102.843 0 0
lwrist 56.5785 0 0
lhand -22.2487 398.926 0
lfingers 7.12502 0 0
lthumb 3.67076 -650.712 0
rclavicle 6.17095e-14 9.42238e-15 0
rhumerus 46.1133 12.4656 -43.9834
rradius 50.0384 0 0
rwrist 4.48038 0 0
rhand -6.18217 -400.168 0
rfingers 7.12502 0 0
rthumb 19.506 290.807 0
2346
root 1.82913 14.5176 -18.7003 924.1 -63.7196 165.561
lfemur -22.092 -5.94351 9.64922
ltibia 26.1675 0 0
lfoot -9.21002 23.6878 0
ltoes -36.5323 0 0
rfemur -62.3454 -4.8553 9.97601
rtibia 77.4208 0 0
rfoot -16.4533 -11.3427 0
rtoes 1.33196 0 0
lowerback 21.1488 3.44163 -3.42146
upperback 0.395323 3.47369 -0.890133
thorax -11.6018 1.7261 -0.0972185
lowerneck -5.69656 -1.22645 -3.87397
upperneck 2.51125 -1.34528 -0.644968
head 1.7762 -0.736716 0.411236
lclavicle 3.15352e-14 -9.09639e-15 0
lhumerus -25.2478 -24.8683 82.6335
lradius 103.288 0 0
lwrist 56.0741 0 0
lhand -22.4556 398.714 0
lfingers 7.12502 0 0
lthumb 3.28611 -650.781 0
rclavicle 5.77271e-14 1.06548e-14 0
rhumerus 45.9885 13.0924 -43.6675
rradius 50.9283 0 0
rwrist 4.02778 0 0
rhand -5.86654 -400.256 0
rfingers 7.12502 0 0
rthumb 19.8123 290.716 0
2347
root 1.95751 14.5872 -18.8996 926.548 -67.1653 163.544
lfemur -23.5205 -6.34995 10.3068
ltibia 28.5603 0 0
lfoot -9.02579 23.418 0
ltoes -35.2711 0 0
rfemur -61.891 -4.0515 9.75936
rtibia 77.2599 0 0
rfoot -16.846 -12.0165 0
rtoes 1.16466 0 0
lowerback 21.2516 3.32828 -3.15101
upperback 0.327563 3.40334 -0.807588
thorax -11.7224 1.68504 -0.145228
lowerneck -5.58657 -0.860911 -3.62673
upperneck 2.60906 -0.869136 -0.856863
head 1.77656 -0.502227 0.318361
lclavicle 2.74641e-14 -9.82792e-15 0
lhumerus -23.3005 -25.258 81.6274
lradius 103.734 0 0
lwrist 55.5697 0 0
lhand -22.6625 398.501 0
lfingers 7.12502 0 0
lthumb 2.90146 -650.849 0
rclavicle 5.37448e-14 1.18873e-14 0
rhumerus 45.8637 13.7193 -43.3516
rradius 51.8182 0 0
rwrist 3.57519 0 0
rhand -5.5509 -400.345 0
rfingers 7.12502 0 0
rthumb 20.1186 290.624 0
